<svg width="159" height="24" viewBox="0 0 159 24" fill="none" xmlns="http://www.w3.org/2000/svg">
<path d="M11.3871 23.8933C3.65378 23.8667 0.000442713 21.4667 0.187109 15.6533H6.82711C6.90711 17.1733 8.18711 18.1067 11.3871 18.1333C14.2138 18.16 15.5204 17.36 15.5204 16.32C15.5204 15.6 15.1204 14.8533 12.9338 14.5333L10.0538 14.08C5.81378 13.3867 0.720443 12.88 0.720443 7.14667C0.720443 2.72 4.32044 -7.15256e-07 11.4404 -7.15256e-07C17.8671 -7.15256e-07 22.3471 1.78667 22.2138 8.18667H15.6271C15.3604 6.69333 14.1071 5.76 11.2804 5.76C8.82711 5.76 7.81378 6.50667 7.81378 7.52C7.81378 8.16 8.21378 8.93333 9.92044 9.2L12.2938 9.6C16.7471 10.3467 22.8538 10.48 22.8538 16.6133C22.8538 21.4933 19.0671 23.92 11.3871 23.8933ZM40.3317 0.746667H47.7184V23.1467H40.3317V15.04H31.6384V23.1467H24.2517V0.746667H31.6384V8.85333H40.3317V0.746667ZM61.8888 23.8933C54.1821 23.8933 49.1954 19.12 49.1954 11.9467C49.1954 4.77333 54.1821 -7.15256e-07 61.8888 -7.15256e-07C69.5954 -7.15256e-07 74.5821 4.77333 74.5821 11.9467C74.5821 19.12 69.5954 23.8933 61.8888 23.8933ZM61.8888 17.52C64.8221 17.52 67.2488 15.4933 67.2488 11.9467C67.2488 8.4 64.8221 6.37333 61.8888 6.37333C58.9554 6.37333 56.5288 8.4 56.5288 11.9467C56.5288 15.4933 58.9554 17.52 61.8888 17.52ZM76.0642 23.1467V0.746667H88.7842C94.8909 0.746667 98.5175 3.46667 98.5175 9.49333C98.5175 15.52 94.8909 18.24 88.8109 18.24H83.4509V23.1467H76.0642ZM83.4509 12.1067H88.1442C89.9309 12.1067 91.0775 11.2267 91.0775 9.49333C91.0775 7.76 89.9309 6.88 88.1709 6.88H83.4509V12.1067ZM102.213 23.5733C100.213 23.5733 98.5329 21.92 98.5329 19.9467C98.5329 17.9733 100.213 16.32 102.213 16.32C104.213 16.32 105.893 17.9733 105.893 19.9467C105.893 21.92 104.213 23.5733 102.213 23.5733ZM119.938 23.8933C112.392 23.8933 107.352 19.12 107.352 11.9467C107.352 4.77333 112.392 -7.15256e-07 119.938 -7.15256e-07C125.405 -7.15256e-07 131.005 2.4 131.752 9.97333H124.712C124.098 7.52 122.365 6.37333 119.938 6.37333C117.005 6.37333 114.685 8.56 114.685 11.9467C114.685 15.3333 117.005 17.52 119.938 17.52C122.365 17.52 124.098 16.3733 124.712 13.8667H131.752C131.005 21.4933 125.458 23.8933 119.938 23.8933ZM145.795 23.8933C138.088 23.8933 133.102 19.12 133.102 11.9467C133.102 4.77333 138.088 -7.15256e-07 145.795 -7.15256e-07C153.502 -7.15256e-07 158.488 4.77333 158.488 11.9467C158.488 19.12 153.502 23.8933 145.795 23.8933ZM145.795 17.52C148.728 17.52 151.155 15.4933 151.155 11.9467C151.155 8.4 148.728 6.37333 145.795 6.37333C142.862 6.37333 140.435 8.4 140.435 11.9467C140.435 15.4933 142.862 17.52 145.795 17.52Z" fill="black"/>
</svg>
